<svg width="24" height="24" viewbox="0 0 24 24" version="1.1" xmlns="http://www.w3.org/2000/svg" xmlns:xlink="http://www.w3.org/1999/xlink" class="icon">
<title>arrow-up</title>
<desc>Created using Figma</desc>
<g id="Canvas" transform="translate(264 2301)">
<g id="arrow-up">
<use xlink:href="#path0_fill" transform="translate(-264 -2301)"/>
</g>
</g>
<defs>
<path id="path0_fill" d="M 1.3044 2.22673C 1.3044 0.997027 2.30133 0 3.53113 0L 21.345 0C 22.5748 0 23.5717 0.997027 23.5717 2.22673L 23.5717 20.0406C 23.5717 21.2703 22.5748 22.2673 21.345 22.2673L 19.1182 22.2673C 17.8884 22.2673 16.8915 21.2703 16.8915 20.0406L 16.8915 11.8322L 5.37579 23.348C 4.50621 24.2173 3.09633 24.2173 2.22675 23.348L 0.652209 21.7731C -0.217403 20.9039 -0.217403 19.4937 0.652209 18.6244L 12.5961 6.68019L 3.53113 6.68019C 2.30133 6.68019 1.3044 5.68316 1.3044 4.45346L 1.3044 2.22673Z"/>
</defs>
</svg>
