<svg width="27" height="24" viewbox="0 0 27 24" version="1.1" xmlns="http://www.w3.org/2000/svg" xmlns:xlink="http://www.w3.org/1999/xlink" class="icon">
<title>camera</title>
<desc>Created using Figma</desc>
<g id="Canvas" transform="translate(397 2256)">
<g id="camera">
<use xlink:href="#path0_fill" transform="translate(-397 -2256)"/>
<use xlink:href="#path1_fill" transform="translate(-397 -2256)"/>
</g>
</g>
<defs>
<path id="path0_fill" d="M 17.6 13.3333C 17.6 15.6898 15.6897 17.6001 13.3333 17.6001C 10.9769 17.6001 9.06665 15.6898 9.06665 13.3333C 9.06665 10.9771 10.9769 9.06673 13.3333 9.06673C 15.6897 9.06673 17.6 10.9771 17.6 13.3333Z"/>
<path id="path1_fill" fill-rule="evenodd" d="M 6.89335 2.66667L 9.33333 0L 17.3333 0L 19.7733 2.66667L 24 2.66667C 25.4667 2.66667 26.6667 3.8667 26.6667 5.33333L 26.6667 21.3333C 26.6667 22.8 25.4667 24 24 24L 2.66667 24C 1.19999 24 0 22.8 0 21.3333L 0 5.33333C 0 3.8667 1.19999 2.66667 2.66667 2.66667L 6.89335 2.66667ZM 6.66667 13.3333C 6.66667 17.0133 9.65332 20 13.3333 20C 17.0133 20 20 17.0133 20 13.3333C 20 9.65332 17.0133 6.66667 13.3333 6.66667C 9.65332 6.66667 6.66667 9.65332 6.66667 13.3333Z"/>
</defs>
</svg>
