<svg width="25" height="24" viewbox="0 0 25 24" version="1.1" xmlns="http://www.w3.org/2000/svg" xmlns:xlink="http://www.w3.org/1999/xlink" class="icon">
<title>info-o</title>
<desc>Created using Figma</desc>
<g id="Canvas" transform="translate(448 2251)">
<g id="info-o">
<use xlink:href="#path0_fill" transform="translate(-448 -2251)"/>
</g>
</g>
<defs>
<path id="path0_fill" d="M 20.4896 3.51454C 15.8024 -1.17125 8.20286 -1.17177 3.51517 3.51454C -1.17199 8.20085 -1.17146 15.799 3.51517 20.4859C 8.20233 25.1711 15.8019 25.1716 20.4896 20.4859C 25.1762 15.799 25.1757 8.20137 20.4896 3.51454ZM 13.5674 17.2176C 13.5674 18.0822 12.8665 18.7829 12.0018 18.7829C 11.1372 18.7829 10.4363 18.0822 10.4363 17.2176L 10.4363 10.9567C 10.4363 10.0922 11.1372 9.39147 12.0018 9.39147C 12.8665 9.39147 13.5674 10.0922 13.5674 10.9567L 13.5674 17.2176ZM 11.9742 8.2812C 11.0724 8.2812 10.4713 7.64258 10.4901 6.85423C 10.4713 6.02778 11.0724 5.40847 11.9925 5.40847C 12.913 5.40847 13.4953 6.0283 13.5147 6.85423C 13.5141 7.64258 12.9135 8.2812 11.9742 8.2812Z"/>
</defs>
</svg>
