<svg width="29" height="24" viewbox="0 0 29 24" version="1.1" xmlns="http://www.w3.org/2000/svg" xmlns:xlink="http://www.w3.org/1999/xlink" class="icon">
<title>ticket</title>
<desc>Created using Figma</desc>
<g id="Canvas" transform="translate(450 2301)">
<g id="ticket">
<use xlink:href="#path0_fill" transform="translate(-450 -2301)"/>
</g>
</g>
<defs>
<path id="path0_fill" d="M 0.571429 9.71429L 0.571429 9.14286C 0.255838 9.14286 0 9.3987 0 9.71429L 0.571429 9.71429ZM 24 9.71429L 24.5544 9.85288C 24.597 9.68217 24.5587 9.50131 24.4504 9.36262C 24.3421 9.22393 24.176 9.14286 24 9.14286L 24 9.71429ZM 23.4286 12L 22.8742 11.8614C 22.8411 11.9937 22.8565 12.1336 22.9175 12.2555L 23.4286 12ZM 23.4286 16.5714L 22.9175 16.3159C 22.8257 16.4993 22.8393 16.7178 22.9531 16.8885L 23.4286 16.5714ZM 24.5714 18.2857L 25.0825 18.5413C 25.1743 18.3578 25.1607 18.1393 25.0469 17.9687L 24.5714 18.2857ZM 23.4286 20.5714L 22.9175 20.3159C 22.8445 20.4618 22.8374 20.6321 22.8981 20.7837L 23.4286 20.5714ZM 24.5714 23.4286L 24.5714 24C 24.761 24 24.9383 23.9059 25.0446 23.7489C 25.1509 23.5919 25.1725 23.3923 25.1019 23.2163L 24.5714 23.4286ZM 0.571429 23.4286L 0 23.4286C 0 23.7441 0.255838 24 0.571429 24L 0.571429 23.4286ZM 4 0.571429L 4 0C 3.68441 0 3.42857 0.255838 3.42857 0.571429L 4 0.571429ZM 28 0.571429L 28.5305 0.783651C 28.601 0.6076 28.5794 0.408082 28.4731 0.25107C 28.3669 0.094056 28.1896 0 28 0L 28 0.571429ZM 26.8571 3.42857L 26.3266 3.21634C 26.2659 3.3679 26.273 3.53814 26.3461 3.68413L 26.8571 3.42857ZM 28 5.71429L 28.4754 6.03126C 28.5893 5.86064 28.6029 5.64215 28.5111 5.45873L 28 5.71429ZM 26.8571 7.42857L 26.3817 7.1116C 26.2679 7.28222 26.2543 7.50071 26.3461 7.68413L 26.8571 7.42857ZM 28 9.71429L 28.4754 10.0313C 28.5893 9.86064 28.6029 9.64215 28.5111 9.45873L 28 9.71429ZM 26.8571 11.4286L 26.3817 11.1116C 26.2773 11.2682 26.2567 11.4661 26.3266 11.6408L 26.8571 11.4286ZM 28 14.2857L 28 14.8571C 28.1896 14.8571 28.3669 14.7631 28.4731 14.6061C 28.5794 14.449 28.601 14.2496 28.5305 14.0735L 28 14.2857ZM 5.14286 13.7143C 4.82727 13.7143 4.57143 13.9702 4.57143 14.2857C 4.57143 14.6013 4.82727 14.8571 5.14286 14.8571L 5.14286 13.7143ZM 13.1429 14.8571C 13.4584 14.8571 13.7143 14.6013 13.7143 14.2857C 13.7143 13.9702 13.4584 13.7143 13.1429 13.7143L 13.1429 14.8571ZM 5.14286 16C 4.82727 16 4.57143 16.2559 4.57143 16.5714C 4.57143 16.887 4.82727 17.1429 5.14286 17.1429L 5.14286 16ZM 13.1429 17.1429C 13.4584 17.1429 13.7143 16.887 13.7143 16.5714C 13.7143 16.2559 13.4584 16 13.1429 16L 13.1429 17.1429ZM 5.14286 18.2857C 4.82727 18.2857 4.57143 18.5416 4.57143 18.8571C 4.57143 19.1727 4.82727 19.4286 5.14286 19.4286L 5.14286 18.2857ZM 13.1429 19.4286C 13.4584 19.4286 13.7143 19.1727 13.7143 18.8571C 13.7143 18.5416 13.4584 18.2857 13.1429 18.2857L 13.1429 19.4286ZM 8.57143 4.57143C 8.25584 4.57143 8 4.82727 8 5.14286C 8 5.45845 8.25584 5.71429 8.57143 5.71429L 8.57143 4.57143ZM 16.5714 5.71429C 16.887 5.71429 17.1429 5.45845 17.1429 5.14286C 17.1429 4.82727 16.887 4.57143 16.5714 4.57143L 16.5714 5.71429ZM 8.57143 6.85714C 8.25584 6.85714 8 7.11298 8 7.42857C 8 7.74416 8.25584 8 8.57143 8L 8.57143 6.85714ZM 16.5714 8C 16.887 8 17.1429 7.74416 17.1429 7.42857C 17.1429 7.11298 16.887 6.85714 16.5714 6.85714L 16.5714 8ZM 23.4456 9.57569L 22.8742 11.8614L 23.983 12.1386L 24.5544 9.85288L 23.4456 9.57569ZM 22.9175 12.2555L 24.0603 14.5413L 25.0825 14.0302L 23.9397 11.7444L 22.9175 12.2555ZM 24.0603 14.0302L 22.9175 16.3159L 23.9397 16.827L 25.0825 14.5413L 24.0603 14.0302ZM 22.9531 16.8885L 24.096 18.6027L 25.0469 17.9687L 23.904 16.2544L 22.9531 16.8885ZM 24.0603 18.0302L 22.9175 20.3159L 23.9397 20.827L 25.0825 18.5413L 24.0603 18.0302ZM 22.8981 20.7837L 24.0409 23.6408L 25.1019 23.2163L 23.9591 20.3592L 22.8981 20.7837ZM 24.5714 22.8571L 0.571429 22.8571L 0.571429 24L 24.5714 24L 24.5714 22.8571ZM 1.14286 23.4286L 1.14286 9.71429L 0 9.71429L 0 23.4286L 1.14286 23.4286ZM 0.571429 10.2857L 4 10.2857L 4 9.14286L 0.571429 9.14286L 0.571429 10.2857ZM 4 10.2857L 24 10.2857L 24 9.14286L 4 9.14286L 4 10.2857ZM 4.57143 9.71429L 4.57143 0.571429L 3.42857 0.571429L 3.42857 9.71429L 4.57143 9.71429ZM 4 1.14286L 28 1.14286L 28 0L 4 0L 4 1.14286ZM 27.4695 0.359206L 26.3266 3.21634L 27.3877 3.6408L 28.5305 0.783651L 27.4695 0.359206ZM 26.3461 3.68413L 27.4889 5.96984L 28.5111 5.45873L 27.3682 3.17302L 26.3461 3.68413ZM 27.5246 5.39731L 26.3817 7.1116L 27.3326 7.74554L 28.4754 6.03126L 27.5246 5.39731ZM 26.3461 7.68413L 27.4889 9.96984L 28.5111 9.45873L 27.3682 7.17302L 26.3461 7.68413ZM 27.5246 9.39731L 26.3817 11.1116L 27.3326 11.7455L 28.4754 10.0313L 27.5246 9.39731ZM 26.3266 11.6408L 27.4695 14.4979L 28.5305 14.0735L 27.3877 11.2163L 26.3266 11.6408ZM 28 13.7143L 24.5714 13.7143L 24.5714 14.8571L 28 14.8571L 28 13.7143ZM 5.14286 14.8571L 13.1429 14.8571L 13.1429 13.7143L 5.14286 13.7143L 5.14286 14.8571ZM 5.14286 17.1429L 13.1429 17.1429L 13.1429 16L 5.14286 16L 5.14286 17.1429ZM 5.14286 19.4286L 13.1429 19.4286L 13.1429 18.2857L 5.14286 18.2857L 5.14286 19.4286ZM 8.57143 5.71429L 16.5714 5.71429L 16.5714 4.57143L 8.57143 4.57143L 8.57143 5.71429ZM 8.57143 8L 16.5714 8L 16.5714 6.85714L 8.57143 6.85714L 8.57143 8Z"/>
</defs>
</svg>
