<svg width="36" height="36" viewBox="0 0 36 36" version="1.1" xmlns="http://www.w3.org/2000/svg" xmlns:xlink="http://www.w3.org/1999/xlink">
<title>alert</title>
<desc>Created using Figma</desc>
<g id="Canvas" transform="translate(5967 670)">
<clipPath id="clip-0" clip-rule="evenodd">
<path d="M -5967 -670L -5931 -670L -5931 -634L -5967 -634L -5967 -670Z" fill="#FFFFFF"/>
</clipPath>
<g id="alert" clip-path="url(#clip-0)">
<g id="alert">
<use xlink:href="#path0_fill" transform="matrix(1 0 0 -1 -5959 -642)"/>
</g>
</g>
</g>
<defs>
<path id="path0_fill" d="M 10 0C 4.48 0 0 4.48 0 10C 0 15.52 4.48 20 10 20C 15.52 20 20 15.52 20 10C 20 4.48 15.52 0 10 0ZM 11 15L 9 15L 9 9L 11 9L 11 15ZM 11 7L 9 7L 9 5L 11 5L 11 7Z"/>
</defs>
</svg>
