<svg width="24" height="24" viewBox="0 0 24 24" version="1.1" xmlns="http://www.w3.org/2000/svg" xmlns:xlink="http://www.w3.org/1999/xlink">
<title>arrow-down</title>
<desc>Created using Figma</desc>
<g id="Canvas" transform="translate(211 2301)">
<g id="arrow-down">
<use xlink:href="#path0_fill" transform="translate(-211 -2301)"/>
</g>
</g>
<defs>
<path id="path0_fill" d="M 1.3044 21.7733C 1.3044 23.003 2.30133 24 3.53113 24L 21.345 24C 22.5748 24 23.5717 23.003 23.5717 21.7733L 23.5717 3.95943C 23.5717 2.72973 22.5748 1.7327 21.345 1.7327L 19.1182 1.7327C 17.8884 1.7327 16.8915 2.72973 16.8915 3.95943L 16.8915 12.1678L 5.37579 0.651955C 4.50621 -0.217318 3.09633 -0.217318 2.22675 0.651955L 0.652209 2.22687C -0.217403 3.09614 -0.217403 4.50633 0.652209 5.3756L 12.5961 17.3198L 3.53113 17.3198C 2.30133 17.3198 1.3044 18.3168 1.3044 19.5465L 1.3044 21.7733Z"/>
</defs>
</svg>
