<svg width="22" height="24" viewBox="0 0 22 24" version="1.1" xmlns="http://www.w3.org/2000/svg" xmlns:xlink="http://www.w3.org/1999/xlink">
<title>bus</title>
<desc>Created using Figma</desc>
<g id="Canvas" transform="translate(394 2391)">
<g id="bus">
<use xlink:href="#path0_fill" transform="translate(-394 -2391)"/>
</g>
</g>
<defs>
<path id="path0_fill" d="M 20.2133 6.40771C 20.0234 4.55058 19.7208 2.37758 19.242 1.80922C 17.2681 -0.527672 3.44134 -0.682781 1.87146 1.82513C 1.48744 2.43957 1.21811 4.60745 1.03737 6.42669C 0.454169 6.4953 0 6.98633 0 7.58745L 0 9.86239C 0 10.3683 0.279525 10.7392 0.727038 10.9056C 0.727038 14.1772 0.727038 18.7983 0.727038 21.0841C 0.727038 21.8111 1.45408 21.8189 1.45408 21.8189L 2.22148 21.8189L 2.22148 22.8884C 2.22148 23.5028 2.85486 24 3.63519 24C 4.41654 24 5.04992 23.5028 5.04992 22.8884L 5.04992 21.8189L 16.075 21.8189L 16.075 22.8884C 16.075 23.5028 16.7079 24 17.4893 24C 18.2696 24 18.903 23.5028 18.903 22.8884L 18.903 21.8189L 19.63 21.803C 19.63 21.803 20.3571 21.8111 20.3571 21.0841C 20.3571 19.2665 20.3571 14.9043 20.3571 10.9056C 20.8327 10.7566 21.0841 10.3898 21.0841 9.86239L 21.0841 7.58745C 21.0846 6.972 20.817 6.45686 20.2133 6.40771ZM 5.08926 2.91588C 5.08926 2.51435 5.41477 2.18884 5.8163 2.18884L 15.2678 2.18884C 15.6693 2.18884 15.9948 2.51435 15.9948 2.91588L 15.9948 2.91588C 15.9948 3.31741 15.6693 3.64292 15.2678 3.64292L 5.8163 3.64292C 5.41477 3.64292 5.08926 3.31741 5.08926 2.91588L 5.08926 2.91588ZM 4.67281 19.5095C 3.83923 19.5095 3.16386 18.8336 3.16386 18.0001C 3.16386 17.167 3.83923 16.4916 4.67281 16.4916C 5.50639 16.4916 6.90931 17.167 6.90931 18.0001C 6.90931 18.8336 5.5069 19.5095 4.67281 19.5095ZM 16.5354 19.5095C 15.7023 19.5095 14.2984 18.8336 14.2984 18.0001C 14.2984 17.167 15.7018 16.4916 16.5354 16.4916C 17.369 16.4916 18.0443 17.167 18.0443 18.0001C 18.0449 18.8336 17.369 19.5095 16.5354 19.5095ZM 18.066 11.9949C 18.1249 12.5836 17.6626 13.0944 17.071 13.0944L 4.01314 13.0944C 3.42152 13.0944 2.95923 12.5836 3.0181 11.9949L 3.45509 7.62506C 3.55733 6.60265 4.41766 5.82406 5.44516 5.82406L 15.6389 5.82406C 16.6664 5.82406 17.5268 6.60265 17.629 7.62506L 18.066 11.9949Z"/>
</defs>
</svg>
