<svg width="24" height="24" viewBox="0 0 24 24" version="1.1" xmlns="http://www.w3.org/2000/svg" xmlns:xlink="http://www.w3.org/1999/xlink">
<title>clock</title>
<desc>Created using Figma</desc>
<g id="Canvas" transform="translate(327 2250)">
<g id="clock">
<use xlink:href="#path0_fill" transform="translate(-327 -2250)"/>
</g>
</g>
<defs>
<path id="path0_fill" fill-rule="evenodd" d="M 12 0C 5.38324 0 0 5.38306 0 12C 0 18.6169 5.38324 24 12 24C 18.6168 24 24 18.6169 24 12C 24 5.38306 18.6168 0 12 0ZM 16.0239 11.9883L 12.012 12L 12 5.98779C 12 5.44238 11.5457 5 11 5C 10.4543 5 10 5.44238 10 5.98779L 10 13.0117C 10 13.5576 10.4543 14 11 14L 16.0239 13.9883C 16.5695 13.9883 17 13.5459 17 13C 17 12.4546 16.5695 11.9883 16.0239 11.9883Z"/>
</defs>
</svg>
