<svg width="24" height="24" viewBox="0 0 24 24" version="1.1" xmlns="http://www.w3.org/2000/svg" xmlns:xlink="http://www.w3.org/1999/xlink">
<title>close-o</title>
<desc>Created using Figma</desc>
<g id="Canvas" transform="translate(264 2256)">
<g id="close-o">
<use xlink:href="#path0_fill" transform="translate(-264 -2256)"/>
</g>
</g>
<defs>
<path id="path0_fill" d="M 11.9979 0C 5.37157 0 0 5.37329 0 12.0004C 0 18.6267 5.37157 24 11.9979 24C 18.6276 24 24 18.6259 24 12.0004C 24 5.37329 18.6276 0 11.9979 0ZM 17.1574 15.2496L 15.2462 17.1583C 15.2462 17.1583 12.2227 13.9142 11.997 13.9142C 11.7747 13.9142 8.75037 17.1583 8.75037 17.1583L 6.83826 15.2496C 6.83826 15.2496 10.0857 12.2699 10.0857 12.0047C 10.0857 11.7352 6.83826 8.75466 6.83826 8.75466L 8.75037 6.8417C 8.75037 6.8417 11.7996 10.0875 11.997 10.0875C 12.1961 10.0875 15.2462 6.8417 15.2462 6.8417L 17.1574 8.75466C 17.1574 8.75466 13.9091 11.7782 13.9091 12.0047C 13.9091 12.2201 17.1574 15.2496 17.1574 15.2496Z"/>
</defs>
</svg>
