<svg width="36" height="36" viewBox="0 0 36 36" version="1.1" xmlns="http://www.w3.org/2000/svg" xmlns:xlink="http://www.w3.org/1999/xlink">
<title>departure</title>
<desc>Created using Figma</desc>
<g id="Canvas" transform="translate(6107 740)">
<clipPath id="clip-0" clip-rule="evenodd">
<path d="M -6107 -740L -6071 -740L -6071 -704L -6107 -704L -6107 -740Z" fill="#FFFFFF"/>
</clipPath>
<g id="departure" clip-path="url(#clip-0)">
<g id="departure">
<use xlink:href="#path0_fill" transform="matrix(-1 -5.55112e-17 -5.55112e-17 1 -6076 -728)" fill="#202020"/>
</g>
</g>
</g>
<defs>
<path id="path0_fill" d="M 25.9953 9.18687C 25.9694 8.96251 25.8342 8.76618 25.634 8.66152L 25.6072 8.64896C 25.5455 8.62314 24.0864 8.01647 23.1923 7.89096C 23.0227 7.86708 22.8443 7.90035 22.6809 7.98223L 20.3531 8.54786C 19.7672 8.24659 17.6454 6.86155 15.029 5.5267L 22.0391 1.9268C 22.2209 1.83098 22.3268 1.66668 22.322 1.48733C 22.3173 1.30812 22.203 1.14975 22.0162 1.06374L 19.9314 0.102227C 19.7313 0.00999692 19.4133 -0.026453 19.1934 0.0204902L 8.86691 2.40346C 6.91172 1.42221 5.29811 0.626517 4.62531 0.329118C 4.13144 0.110832 3.53098 0.000791159 2.84077 0.000791159C 1.70185 0.000791159 0.30846 0.328152 0.0509629 0.811253C 0.0408839 0.829754 -0.638965 2.84666 3.28742 5.1038L 17.3712 11.7361C 17.2386 11.6685 17.735 11.9178 18.0746 11.9774C 18.6494 12.0783 19.2718 12.1076 19.9121 12.1076L 20.0976 12.1076C 20.1864 12.1076 20.2737 12.1076 20.3594 12.1076L 20.4173 12.1076L 20.4173 12.0872C 20.8315 12.0872 21.1358 11.908 21.1846 11.8741L 25.7583 9.7952L 25.7696 9.78153C 25.9401 9.63408 26.021 9.41206 25.9953 9.18687Z"/>
</defs>
</svg>
