<svg width="30" height="24" viewBox="0 0 30 24" version="1.1" xmlns="http://www.w3.org/2000/svg" xmlns:xlink="http://www.w3.org/1999/xlink">
<title>dinner</title>
<desc>Created using Figma</desc>
<g id="Canvas" transform="translate(217 2250)">
<g id="dinner">
<use xlink:href="#path0_fill" transform="translate(-217 -2250)"/>
<use xlink:href="#path1_fill" transform="translate(-217 -2250)"/>
<use xlink:href="#path2_fill" transform="translate(-217 -2250)"/>
<use xlink:href="#path3_fill" transform="translate(-217 -2250)"/>
</g>
</g>
<defs>
<path id="path0_fill" d="M 15.3897 1.56711C 9.93444 1.56711 5.51204 5.9895 5.51204 11.4448C 5.51204 16.9001 9.93444 21.3225 15.3897 21.3225C 20.845 21.3225 25.2674 16.9001 25.2674 11.4448C 25.2674 5.9895 20.845 1.56711 15.3897 1.56711ZM 15.3897 18.9398C 11.257 18.9398 7.89477 15.5776 7.89477 11.4449C 7.89477 7.31217 11.257 3.94995 15.3897 3.94995C 19.5224 3.94995 22.8846 7.31217 22.8846 11.4449C 22.8846 15.5776 19.5224 18.9398 15.3897 18.9398Z"/>
<path id="path1_fill" d="M 15.375 5.25C 11.8598 5.25 8.99999 8.10981 8.99999 11.625C 8.99999 15.1402 11.8598 18 15.375 18C 18.8902 18 21.75 15.1402 21.75 11.625C 21.75 8.10981 18.8902 5.25 15.375 5.25Z"/>
<path id="path2_fill" d="M 29.2039 12.273L 29.2039 0.269824C 29.2039 0.154014 29.1299 0.0510783 29.0201 0.0140867C 28.9103 -0.0228467 28.7892 0.0144944 28.7191 0.10677C 27.2215 2.08177 26.411 4.49235 26.411 6.9709L 26.411 11.362C 26.411 11.8656 26.8192 12.2739 27.3229 12.2739L 27.7031 12.2739C 27.3283 16.1445 27.0807 21.558 27.0807 22.1918C 27.0807 23.1904 27.6953 23.9999 28.4535 23.9999C 29.2117 23.9999 29.8263 23.1904 29.8263 22.1918C 29.8263 21.5579 29.5787 16.1436 29.2039 12.273Z"/>
<path id="path3_fill" d="M 3.9856 9.89367C 4.74536 9.43345 5.25316 8.59902 5.25316 7.64586L 4.87684 1.49295C 4.86245 1.25842 4.66805 1.07556 4.43305 1.07556C 4.17889 1.07556 3.9764 1.28848 3.98904 1.54218L 4.23376 6.47686C 4.23376 6.75427 4.00884 6.97907 3.73155 6.97907C 3.4542 6.97907 3.22934 6.75415 3.22934 6.47686L 3.10706 1.54422C 3.1006 1.28353 2.88744 1.07562 2.62664 1.07562C 2.36583 1.07562 2.15274 1.28359 2.14621 1.54422L 2.02394 6.47686C 2.02394 6.75427 1.79902 6.97907 1.52172 6.97907C 1.24437 6.97907 1.01951 6.75415 1.01951 6.47686L 1.26424 1.54218C 1.27682 1.28836 1.07421 1.07556 0.820224 1.07556C 0.585225 1.07556 0.39083 1.25842 0.376499 1.49295L 0 7.64591C 0 8.59907 0.507746 9.43345 1.26756 9.89372C 1.76202 10.1932 2.03769 10.7532 1.97395 11.3278C 1.54503 15.1934 1.25375 21.5044 1.25375 22.1919C 1.25375 23.1905 1.8684 24 2.62658 24C 3.38476 24 3.99941 23.1904 3.99941 22.1919C 3.99941 21.5044 3.70808 15.1934 3.27921 11.3278C 3.21542 10.7534 3.49137 10.193 3.9856 9.89367Z"/>
</defs>
</svg>
