<svg width="24" height="24" viewBox="0 0 24 24" version="1.1" xmlns="http://www.w3.org/2000/svg" xmlns:xlink="http://www.w3.org/1999/xlink">
<title>expand</title>
<desc>Created using Figma</desc>
<g id="Canvas" transform="translate(260 2391)">
<g id="expand">
<use xlink:href="#path0_fill" transform="translate(-260 -2391)"/>
</g>
</g>
<defs>
<path id="path0_fill" d="M 3.42857 15.4286L 0 15.4286L 0 24L 8.57143 24L 8.57143 20.5714L 3.42857 20.5714L 3.42857 15.4286ZM 0 8.57143L 3.42857 8.57143L 3.42857 3.42857L 8.57143 3.42857L 8.57143 0L 0 0L 0 8.57143ZM 20.5714 20.5714L 15.4286 20.5714L 15.4286 24L 24 24L 24 15.4286L 20.5714 15.4286L 20.5714 20.5714ZM 15.4286 0L 15.4286 3.42857L 20.5714 3.42857L 20.5714 8.57143L 24 8.57143L 24 0L 15.4286 0Z"/>
</defs>
</svg>
