<svg width="36" height="36" viewBox="0 0 36 36" version="1.1" xmlns="http://www.w3.org/2000/svg" xmlns:xlink="http://www.w3.org/1999/xlink">
<title>home</title>
<desc>Created using Figma</desc>
<g id="Canvas" transform="translate(6177 1090)">
<clipPath id="clip-0" clip-rule="evenodd">
<path d="M -6177 -1090L -6141 -1090L -6141 -1054L -6177 -1054L -6177 -1090Z" fill="#FFFFFF"/>
</clipPath>
<g id="home" clip-path="url(#clip-0)">
<g id="home">
<use xlink:href="#path0_fill" transform="translate(-6171 -1082)"/>
</g>
</g>
</g>
<defs>
<path id="path0_fill" d="M 9.15385 20.3077C 9.70613 20.3077 10.1538 19.86 10.1538 19.3077L 10.1538 15.7692C 10.1538 15.2169 10.6016 14.7692 11.1538 14.7692L 12.8462 14.7692C 13.3984 14.7692 13.8462 15.2169 13.8462 15.7692L 13.8462 19.3077C 13.8462 19.86 14.2939 20.3077 14.8462 20.3077L 19.3077 20.3077C 19.86 20.3077 20.3077 19.86 20.3077 19.3077L 20.3077 12L 22.7929 12C 23.2383 12 23.4614 11.4614 23.1464 11.1464L 12.7071 0.707106C 12.3166 0.316582 11.6834 0.316582 11.2929 0.707107L 0.853553 11.1464C 0.53857 11.4614 0.761654 12 1.20711 12L 3.69231 12L 3.69231 19.3077C 3.69231 19.86 4.14002 20.3077 4.69231 20.3077L 9.15385 20.3077Z"/>
</defs>
</svg>
