<svg width="23" height="24" viewBox="0 0 23 24" version="1.1" xmlns="http://www.w3.org/2000/svg" xmlns:xlink="http://www.w3.org/1999/xlink">
<title>map</title>
<desc>Created using Figma</desc>
<g id="Canvas" transform="translate(326 2352)">
<g id="map">
<use xlink:href="#path0_fill" transform="translate(-326 -2352)"/>
<use xlink:href="#path1_fill" transform="translate(-326 -2352)"/>
</g>
</g>
<defs>
<path id="path0_fill" fill-rule="evenodd" d="M 13.7707 5.62544C 13.7707 4.43725 14.7382 3.46979 15.9264 3.46979C 17.1146 3.46979 18.082 4.43725 18.082 5.62544C 18.082 6.81363 17.1146 7.78109 15.9264 7.78109C 14.7382 7.78109 13.7707 6.81363 13.7707 5.62544ZM 10.7528 5.62544C 10.7528 2.77136 13.0723 0.451883 15.9264 0.451883C 18.7805 0.451883 21.1 2.77136 21.1 5.62544C 21.1 7.20885 20.233 8.9693 19.2071 10.4168C 19.1297 10.5261 19.0513 10.6336 18.9723 10.7391C 18.4106 11.4905 17.816 12.1402 17.2875 12.6072C 17.0232 12.8413 16.7753 13.0297 16.5511 13.1633C 16.3269 13.2978 16.1312 13.3858 15.926 13.3858C 15.7207 13.3858 15.525 13.2974 15.3008 13.1637C 15.0766 13.0292 14.8292 12.8413 14.5649 12.6076C 14.0363 12.1398 13.4418 11.491 12.88 10.7386C 12.8356 10.6793 12.7914 10.6193 12.7475 10.5588C 11.678 9.08543 10.7528 7.26117 10.7528 5.62544Z"/>
<path id="path1_fill" fill-rule="evenodd" d="M 10.301 5.62544C 10.301 2.52179 12.8227 0 15.9264 0C 19.03 0 21.5518 2.52179 21.5518 5.62544C 21.5518 7.20654 20.7683 8.89672 19.8355 10.2999L 20.5703 10.8039C 20.674 10.8751 20.7433 10.9862 20.7617 11.1105L 22.5893 23.4821C 22.6132 23.644 22.5477 23.8062 22.418 23.9061C 22.2883 24.006 22.1147 24.0279 21.9643 23.9635L 16.5256 21.6326L 11.4864 23.9584C 11.3663 24.0139 11.2279 24.0139 11.1077 23.9584L 6.06852 21.6326L 0.629897 23.9635C 0.479314 24.028 0.305596 24.006 0.175879 23.9059C 0.0461619 23.8058 -0.0192333 23.6434 0.00496637 23.4814L 1.85266 11.1098C 1.87418 10.9658 1.9638 10.8409 2.09339 10.7745L 6.79297 8.36443C 6.92771 8.29533 7.08811 8.29832 7.22019 8.37238L 11.3244 10.6738L 12.0583 10.3612C 11.1063 8.94409 10.301 7.22832 10.301 5.62544ZM 12.5971 11.114L 11.749 11.4753L 11.749 22.8419L 16.0443 20.8594L 15.5016 13.7624C 15.3427 13.7072 15.1986 13.6289 15.0694 13.5519L 15.0683 13.5512C 14.8233 13.4035 14.5426 13.1907 14.2656 12.9461C 13.7446 12.4843 13.1507 11.8411 12.5971 11.114ZM 16.4064 13.7419L 16.9485 20.8306L 21.5771 22.8143L 19.8964 11.4377L 19.3133 11.0376C 18.7436 11.795 18.1265 12.468 17.5871 12.9454L 16.4064 13.7419ZM 19.3341 11.0098L 19.3341 11.0098ZM 16.4064 13.7419C 16.5434 13.6887 16.6691 13.6195 16.7836 13.5508L 16.7825 13.5515L 16.5511 13.1633L 16.7836 13.5508L 16.4064 13.7419ZM 10.8452 22.8419L 10.8452 11.4413L 7.39697 9.50767L 6.54929 20.8591L 10.8452 22.8419ZM 5.64513 20.8308L 6.48855 9.53622L 2.71224 11.4728L 1.01848 22.8137L 5.64513 20.8308ZM 15.9264 0.903766C 13.3219 0.903766 11.2047 3.02093 11.2047 5.62544C 11.2047 7.115 12.0598 8.84213 13.1132 10.2933C 13.1562 10.3525 13.1984 10.4099 13.2419 10.4679C 13.7895 11.2024 14.353 11.8174 14.8642 12.2691C 15.1152 12.4914 15.3292 12.6544 15.5322 12.7756C 15.7445 12.9022 15.8503 12.9339 15.926 12.9339C 16.0017 12.9339 16.1077 12.9024 16.3186 12.7758L 16.3197 12.7752C 16.5225 12.6551 16.7365 12.492 16.9878 12.2689C 17.4989 11.8183 18.0625 11.2024 18.6104 10.4685C 18.6877 10.3653 18.7627 10.2623 18.8384 10.1555C 19.8479 8.7312 20.6481 7.06626 20.6481 5.62544C 20.6481 3.02093 18.5309 0.903766 15.9264 0.903766ZM 13.3189 5.62544C 13.3189 4.18768 14.4886 3.01791 15.9264 3.01791C 17.3642 3.01791 18.5339 4.18768 18.5339 5.62544C 18.5339 7.0632 17.3642 8.23297 15.9264 8.23297C 14.4886 8.23297 13.3189 7.0632 13.3189 5.62544ZM 15.9264 3.92167C 14.9878 3.92167 14.2226 4.68681 14.2226 5.62544C 14.2226 6.56406 14.9878 7.3292 15.9264 7.3292C 16.865 7.3292 17.6302 6.56406 17.6302 5.62544C 17.6302 4.68681 16.865 3.92167 15.9264 3.92167Z"/>
</defs>
</svg>
