<svg width="36" height="24" viewBox="0 0 36 24" version="1.1" xmlns="http://www.w3.org/2000/svg" xmlns:xlink="http://www.w3.org/1999/xlink">
<title>pass</title>
<desc>Created using Figma</desc>
<g id="Canvas" transform="translate(454 2346)">
<g id="pass">
<use xlink:href="#path0_fill" transform="translate(-454 -2346)"/>
</g>
</g>
<defs>
<path id="path0_fill" d="M 3 0C 1.34315 0 0 1.34315 0 3L 0 21C 0 22.6569 1.34315 24 3 24L 32.5862 24C 34.2431 24 35.5862 22.6569 35.5862 21L 35.5862 3C 35.5862 1.34315 34.2431 0 32.5862 0L 3 0ZM 11.2214 13.3688C 11.4647 13.6493 11.6599 13.877 11.8024 14.0475L 10.2375 15.0795L 8.86771 12.8157C 8.45553 13.5578 7.97519 14.3357 7.43752 15.1693L 5.8927 13.9716C 6.39006 13.4215 6.89986 12.9009 7.43752 12.3911C 7.64828 12.1912 7.78462 12.0549 7.83576 12.0068C 7.66839 11.9743 7.17878 11.8642 6.36995 11.6628C 5.78732 11.5141 5.40309 11.4164 5.21869 11.3436L 5.84313 9.54002C 6.73716 9.90263 7.53055 10.3101 8.22157 10.7408C 8.06196 9.62213 7.97828 8.71101 7.97828 8.00755L 9.77876 8.00755C 9.77876 8.50492 9.68581 9.42071 9.50292 10.7517C 9.64235 10.6975 9.93061 10.5673 10.3815 10.3535C 10.9935 10.0745 11.5606 9.83748 12.0798 9.64066L 12.6236 11.5016C 11.8659 11.669 10.9873 11.8379 9.98951 12.0021L 11.2214 13.3688ZM 20.2734 13.3735C 20.5213 13.6508 20.715 13.877 20.8575 14.0522L 19.2926 15.0841L 17.9213 12.8188C 17.5045 13.561 17.0226 14.3358 16.488 15.1709L 14.9494 13.9762C 15.4437 13.4246 15.955 12.904 16.4911 12.3942C 16.7003 12.1943 16.8382 12.0611 16.8909 12.0068C 16.7204 11.9759 16.2323 11.8643 15.4251 11.6628C 14.8393 11.5156 14.4566 11.4164 14.2753 11.3436L 14.8967 9.54311C 15.7907 9.90723 16.5825 10.3132 17.2751 10.7439C 17.1124 9.62673 17.035 8.71568 17.035 8.01222L 18.8324 8.01222C 18.8324 8.50808 18.7409 9.4238 18.5581 10.7564C 18.6929 10.7005 18.9858 10.5705 19.4367 10.3581C 20.0503 10.0792 20.6158 9.84057 21.1334 9.64224L 21.6757 11.5047C 20.9195 11.6721 20.0379 11.841 19.0462 12.0052L 20.2734 13.3735ZM 29.3286 13.3735C 29.5703 13.6508 29.7671 13.877 29.9096 14.0522L 28.3447 15.0841L 26.9765 12.8188C 26.5582 13.561 26.084 14.3358 25.5416 15.1709L 24.0015 13.9762C 24.4911 13.4246 25.0025 12.904 25.5416 12.3942C 25.7539 12.1975 25.8934 12.0611 25.9445 12.0099C 25.7756 11.9774 25.2813 11.8673 24.4771 11.6644C 23.896 11.5156 23.5117 11.4165 23.3305 11.3437L 23.9534 9.5416C 24.8459 9.90572 25.6392 10.3101 26.3287 10.7424C 26.1676 9.62522 26.0901 8.71417 26.0901 8.01071L 27.8875 8.01071C 27.8875 8.50657 27.7914 9.42229 27.6086 10.7549C 27.748 10.699 28.0347 10.5674 28.4856 10.3566C 29.0991 10.0777 29.6663 9.83906 30.1838 9.64073L 30.7292 11.5032C 29.9762 11.669 29.0884 11.8395 28.0967 12.0022L 29.3286 13.3735Z"/>
</defs>
</svg>
