<svg width="25" height="24" viewBox="0 0 25 24" version="1.1" xmlns="http://www.w3.org/2000/svg" xmlns:xlink="http://www.w3.org/1999/xlink">
<title>user</title>
<desc>Created using Figma</desc>
<g id="Canvas" transform="translate(327 2301)">
<g id="user">
<use xlink:href="#path0_fill" transform="translate(-327 -2301)"/>
<use xlink:href="#path1_fill" transform="translate(-327 -2301)"/>
</g>
</g>
<defs>
<path id="path0_fill" d="M 12.0299 12.0277C 15.352 12.0277 18.0448 9.33541 18.0448 6.01387C 18.0448 2.69268 15.352 0 12.0299 0C 8.70799 0 6.01495 2.69268 6.01495 6.01387C 6.01495 9.33541 8.70799 12.0277 12.0299 12.0277Z"/>
<path id="path1_fill" d="M 0 24L 0 19.1924C 0 16.6009 4.0419 13.7476 7.51868 12.8396L 6.76682 16.016L 9.02242 16.016L 12.0299 22.4048L 15.0374 16.016L 17.2932 16.016L 16.5411 12.8396C 20.024 13.7461 24.06 16.5966 24.06 19.1924L 24.06 24L 0 24Z"/>
</defs>
</svg>
