<svg width="38" height="24" viewBox="0 0 38 24" version="1.1" xmlns="http://www.w3.org/2000/svg" xmlns:xlink="http://www.w3.org/1999/xlink">
<title>users</title>
<desc>Created using Figma</desc>
<g id="Canvas" transform="translate(402 2301)">
<g id="users">
<use xlink:href="#path0_fill" transform="translate(-402 -2301)"/>
</g>
</g>
<defs>
<path id="path0_fill" d="M 25.4823 10.2857C 28.3024 10.2857 30.5618 7.98857 30.5618 5.14286C 30.5618 2.29714 28.3024 0 25.4823 0C 22.6623 0 20.3859 2.29714 20.3859 5.14286C 20.3859 7.98857 22.6623 10.2857 25.4823 10.2857ZM 11.8917 10.2857C 14.7118 10.2857 16.9712 7.98857 16.9712 5.14286C 16.9712 2.29714 14.7118 0 11.8917 0C 9.07171 0 6.79529 2.29714 6.79529 5.14286C 6.79529 7.98857 9.07171 10.2857 11.8917 10.2857ZM 11.8917 13.7143C 7.9335 13.7143 0 15.72 0 19.7143L 0 24L 23.7835 24L 23.7835 19.7143C 23.7835 15.72 15.85 13.7143 11.8917 13.7143ZM 25.4823 13.7143C 24.9897 13.7143 24.4291 13.7486 23.8345 13.8C 25.8051 15.24 27.1811 17.1771 27.1811 19.7143L 27.1811 24L 37.3741 24L 37.3741 19.7143C 37.3741 15.72 29.4406 13.7143 25.4823 13.7143Z"/>
</defs>
</svg>
