<svg width="43" height="24" viewBox="0 0 43 24" version="1.1" xmlns="http://www.w3.org/2000/svg" xmlns:xlink="http://www.w3.org/1999/xlink">
<title>van</title>
<desc>Created using Figma</desc>
<g id="Canvas" transform="translate(336 2391)">
<g id="van">
<use xlink:href="#path0_fill" transform="translate(-336 -2391)"/>
<use xlink:href="#path1_fill" transform="translate(-336 -2391)"/>
<use xlink:href="#path2_fill" transform="translate(-336 -2391)"/>
</g>
</g>
<defs>
<path id="path0_fill" d="M 14.2274 19.5731C 14.2274 21.5413 12.6318 23.1369 10.6636 23.1369C 8.69534 23.1369 7.09977 21.5413 7.09977 19.5731C 7.09977 17.6049 8.69534 16.0093 10.6636 16.0093C 12.6318 16.0093 14.2274 17.6049 14.2274 19.5731Z"/>
<path id="path1_fill" d="M 37.3921 19.5731C 37.3921 21.5413 35.7965 23.1369 33.8283 23.1369C 31.8601 23.1369 30.2645 21.5413 30.2645 19.5731C 30.2645 17.6049 31.8601 16.0093 33.8283 16.0093C 35.7965 16.0093 37.3921 17.6049 37.3921 19.5731Z"/>
<path id="path2_fill" fill-rule="evenodd" d="M 4.31555 1.72622C 2.8855 1.72622 1.72622 2.8855 1.72622 4.31555L 1.72622 8.01856L 30.7809 8.01856C 29.7432 5.53248 28.6423 4.0254 26.3446 1.72622L 4.31555 1.72622ZM 28.7305 1.72622C 30.5907 3.76716 31.6466 5.48401 32.6694 8.09542C 35.5057 8.4999 37.4272 9.09553 39.3807 10.157C 37.9907 7.41619 36.5715 5.49363 34.2521 3.24533C 33.2273 2.24915 31.8127 1.72622 30.3335 1.72622L 28.7305 1.72622ZM 40.6521 12.9754C 37.8067 11.0086 35.9504 10.2484 31.992 9.74478L 1.72622 9.74478L 1.72622 16.1206C 1.72622 17.5507 2.8855 18.71 4.31555 18.71L 6.32075 18.71C 6.72227 16.6782 8.51401 15.1462 10.6636 15.1462C 12.8131 15.1462 14.6049 16.6782 15.0064 18.71L 29.4855 18.71C 29.887 16.6782 31.6787 15.1462 33.8283 15.1462C 35.9779 15.1462 37.7696 16.6782 38.1711 18.71L 38.683 18.71C 40.1892 18.71 41.363 17.4571 41.22 16.0583C 41.1173 15.0484 40.9586 14.1168 40.6521 12.9754ZM 38.1711 20.4362L 38.683 20.4362C 41.1106 20.4362 43.1944 18.3973 42.9373 15.8827C 42.8182 14.7239 42.614 13.5741 42.2323 12.212C 42.2216 12.1737 42.2082 12.1362 42.1923 12.0998C 40.2659 7.69891 38.5872 5.06025 35.4553 2.00756C 34.0733 0.664177 32.2108 0 30.3335 0L 4.31555 0C 1.93214 0 0 1.93214 0 4.31555L 0 16.1206C 0 18.5041 1.93214 20.4362 4.31555 20.4362L 6.32075 20.4362C 6.72227 22.4679 8.51401 24 10.6636 24C 12.8131 24 14.6049 22.4679 15.0064 20.4362L 29.4855 20.4362C 29.887 22.4679 31.6787 24 33.8283 24C 35.9779 24 37.7696 22.4679 38.1711 20.4362ZM 10.6636 16.8724C 9.17202 16.8724 7.96288 18.0815 7.96288 19.5731C 7.96288 21.0646 9.17202 22.2738 10.6636 22.2738C 12.1551 22.2738 13.3643 21.0646 13.3643 19.5731C 13.3643 18.0815 12.1551 16.8724 10.6636 16.8724ZM 33.8283 16.8724C 32.3368 16.8724 31.1276 18.0815 31.1276 19.5731C 31.1276 21.0646 32.3368 22.2738 33.8283 22.2738C 35.3199 22.2738 36.529 21.0646 36.529 19.5731C 36.529 18.0815 35.3199 16.8724 33.8283 16.8724Z"/>
</defs>
</svg>
